<?xml version="1.0" standalone="no"?>
<!DOCTYPE svg PUBLIC "-//W3C//DTD SVG 20010904//EN"
 "http://www.w3.org/TR/2001/REC-SVG-20010904/DTD/svg10.dtd">
<svg version="1.0" xmlns="http://www.w3.org/2000/svg"
 width="1000.000000pt" height="1000.000000pt" viewBox="0 0 1000.000000 1000.000000"
 preserveAspectRatio="xMidYMid meet">
<metadata>
Created by potrace 1.11, written by Peter Selinger 2001-2013
</metadata>
<g transform="translate(0.000000,1000.000000) scale(0.100000,-0.100000)"
fill="#000000" stroke="none">
<path d="M2547 7180 l-57 -80 47 0 c45 1 50 4 81 45 l33 45 185 0 c145 0 184
-3 178 -12 -5 -7 -38 -53 -74 -103 -91 -124 -88 -115 -36 -115 l45 0 105 145
c58 79 106 147 106 150 0 3 -125 5 -277 5 l-278 -1 -58 -79z"/>
<path d="M3298 7180 l-58 -80 48 0 47 1 58 79 57 80 -47 0 -48 -1 -57 -79z"/>
<path d="M3674 7147 l-80 -112 -91 -3 c-91 -3 -91 -3 -118 -37 l-26 -35 135 0
136 0 72 98 c39 53 89 121 110 150 l39 52 -48 0 -48 0 -81 -113z"/>
<path d="M4046 7228 l-26 -33 81 -3 c93 -3 92 1 23 -96 l-48 -66 -86 0 c-84 0
-87 -1 -108 -30 -12 -16 -22 -32 -22 -35 0 -3 102 -5 228 -5 l227 0 23 33 22
32 -90 3 c-49 1 -90 6 -90 10 0 4 23 39 50 77 l50 70 101 5 c100 5 102 5 127
38 l25 32 -231 0 -231 0 -25 -32z"/>
<path d="M5089 7215 l-32 -45 -233 0 -233 0 -25 -32 -25 -33 155 -5 155 -5
-46 -62 c-25 -35 -45 -65 -45 -68 0 -3 20 -5 43 -5 43 0 45 2 93 70 l49 70 77
0 76 0 49 68 c72 98 70 92 19 92 -42 0 -47 -3 -77 -45z"/>
<path d="M5277 7180 l-57 -80 47 0 c45 1 50 4 81 45 l33 45 185 0 c182 0 185
0 174 -20 -10 -18 -21 -20 -105 -20 l-94 0 -25 -32 -25 -33 84 -3 c52 -2 85
-7 85 -13 0 -6 -13 -28 -28 -48 -48 -61 -48 -61 2 -61 42 0 46 3 82 53 45 61
52 67 81 67 12 0 30 12 42 29 26 36 26 41 0 41 -19 0 -18 4 15 50 20 28 36 52
36 55 0 3 -125 5 -277 5 l-278 -1 -58 -79z"/>
<path d="M6612 7227 l-22 -32 162 -5 163 -5 -75 -49 c-41 -27 -118 -76 -170
-110 l-95 -61 67 -3 67 -3 92 62 91 61 127 -61 c100 -48 137 -61 174 -61 78 0
58 23 -83 96 -71 37 -130 71 -130 75 0 4 41 33 90 64 50 31 90 59 90 61 0 2
-118 4 -262 4 l-263 0 -23 -33z"/>
<path d="M7160 7214 l-65 -44 55 0 c49 0 62 5 119 45 l65 45 -55 -1 c-47 0
-62 -6 -119 -45z"/>
<path d="M7320 7214 l-65 -44 55 0 c49 0 62 5 119 45 l65 45 -55 -1 c-47 0
-62 -6 -119 -45z"/>
<path d="M5932 7117 l-22 -32 302 -3 c167 -1 308 0 314 2 6 2 21 18 33 35 l22
31 -313 0 -313 0 -23 -33z"/>
<path d="M2540 6637 l0 -152 153 -153 152 -152 385 -2 385 -3 3 -152 3 -153
-383 0 -383 0 -155 -155 -155 -155 153 0 152 0 0 -313 0 -312 -155 -155 -155
-155 0 -155 0 -155 158 158 157 157 775 0 775 0 153 153 152 152 0 310 0 310
155 155 155 155 0 -310 0 -310 155 155 155 154 2 156 3 155 303 3 c166 1 302
-1 302 -5 0 -5 -345 -353 -768 -776 l-767 -767 -620 0 -620 0 -313 -313 -312
-312 0 -155 0 -155 310 310 310 310 232 -232 233 -233 -75 -75 -74 -75 -311 0
-310 0 -155 -155 -155 -155 465 0 465 0 152 152 153 153 153 -153 152 -152
160 0 160 0 155 155 155 155 -310 0 -310 0 -78 78 -77 77 1005 1005 1005 1005
0 -463 0 -462 -153 0 -152 0 -310 -310 -310 -310 -155 0 -155 0 -155 -155
-155 -155 310 0 310 0 307 307 308 308 0 -155 0 -155 -462 -462 -463 -463 465
0 465 0 153 153 152 152 0 158 0 157 155 0 155 0 0 -152 0 -153 -157 -157
-158 -158 160 0 160 0 153 153 152 152 0 155 0 155 158 158 157 157 155 0 155
0 155 155 155 155 -315 0 -315 0 -152 -152 -153 -153 0 150 0 150 157 157 158
158 -160 0 -160 0 -153 -153 -152 -152 0 -158 0 -157 -155 0 -155 0 0 152 0
153 157 157 158 158 -155 0 -155 0 153 153 152 152 0 310 0 310 465 -465 465
-465 0 160 0 160 -462 462 -463 463 310 0 310 0 153 153 152 152 0 155 0 155
-153 -153 -152 -152 -313 0 -312 0 0 307 0 308 -155 -155 -155 -155 0 -152 0
-153 -153 0 -152 0 -150 -150 c-82 -82 -153 -150 -157 -150 -5 0 -8 66 -8 147
l0 148 157 157 158 158 -155 0 -155 0 -310 -310 -310 -310 -392 0 -393 0 0
155 0 155 393 0 392 0 155 155 155 155 -1085 0 -1085 0 -150 150 c-82 83 -153
150 -157 150 -5 0 -8 -69 -8 -153z m1860 -1387 l0 -310 -620 0 -620 0 0 303
c0 167 3 307 7 310 3 4 282 7 620 7 l613 0 0 -310z m-320 -1248 c0 -4 -66 -74
-148 -155 l-147 -147 -155 155 -155 155 303 0 c166 0 302 -3 302 -8z m1560
-462 l0 -150 -152 0 -153 0 150 150 c82 83 151 150 152 150 2 0 3 -67 3 -150z"/>
<path d="M3552 5345 c-19 -23 -26 -25 -110 -25 l-91 0 -25 -33 c-15 -19 -26
-37 -26 -40 0 -3 39 -8 86 -9 l86 -3 -47 -65 c-26 -36 -52 -71 -58 -77 -7 -10
2 -13 39 -13 l49 1 58 79 57 80 88 0 87 0 28 40 28 40 -86 0 -85 0 16 25 16
25 -45 0 c-37 0 -49 -5 -65 -25z"/>
<path d="M3858 5287 c-27 -40 -48 -76 -48 -80 0 -4 19 -7 43 -7 41 0 43 1 95
80 l52 80 -47 0 -48 0 -47 -73z"/>
<path d="M4008 5308 c-19 -29 -43 -65 -52 -80 l-18 -28 46 0 45 0 51 75 c27
41 50 77 50 80 0 3 -20 5 -44 5 -41 0 -45 -3 -78 -52z"/>
<path d="M4121 5255 l-74 -105 -66 0 c-63 0 -67 -2 -89 -33 l-22 -32 102 -3
c56 -1 107 -1 113 1 9 4 173 222 199 265 5 9 -5 12 -41 12 l-48 -1 -74 -104z"/>
<path d="M6833 3548 l-53 -54 0 -207 c0 -114 4 -207 8 -207 4 0 29 22 55 48
l47 48 -2 212 -3 213 -52 -53z"/>
<path d="M7042 3547 l-52 -53 0 -101 0 -102 108 -3 107 -3 0 -50 0 -50 -55 -3
c-50 -3 -59 -7 -102 -50 -27 -25 -48 -50 -48 -54 0 -4 46 -8 103 -8 l103 0 52
53 52 53 0 159 0 159 52 53 52 53 -160 0 -160 0 -52 -53z m163 -102 l0 -50
-52 -3 -53 -3 0 56 0 56 53 -3 52 -3 0 -50z"/>
<path d="M6450 3125 l-54 -55 105 0 105 0 54 55 54 55 -105 0 -105 0 -54 -55z"/>
<path d="M3913 2818 c-13 -13 -23 -35 -23 -48 l0 -25 26 26 c16 16 24 35 22
49 l-3 22 -22 -24z"/>
<path d="M2533 2772 c24 -25 27 -35 27 -103 0 -99 10 -109 110 -109 l73 0 -23
25 c-19 20 -33 25 -72 25 l-49 0 3 68 3 67 49 3 48 3 -23 25 c-20 21 -31 24
-98 24 l-75 0 27 -28z"/>
<path d="M2723 2772 c24 -25 27 -36 27 -98 0 -58 4 -74 20 -89 20 -18 20 -17
20 18 0 21 4 37 8 37 4 0 26 -18 47 -40 25 -26 48 -40 64 -40 24 0 23 2 -19
45 -39 40 -42 45 -22 45 20 0 22 5 22 53 0 78 -23 97 -120 97 l-74 0 27 -28z
m117 -47 c0 -18 -5 -25 -19 -25 -11 0 -23 5 -26 10 -11 18 3 40 25 40 15 0 20
-7 20 -25z"/>
<path d="M2913 2772 c24 -25 27 -36 27 -98 0 -96 18 -114 115 -114 l68 0 -23
25 c-19 20 -33 25 -72 25 -41 0 -48 3 -48 20 0 17 7 20 52 20 l51 0 -22 24
c-13 14 -35 26 -50 28 -18 2 -26 9 -26 23 0 17 8 20 49 23 l48 3 -23 25 c-20
21 -31 24 -98 24 l-75 0 27 -28z"/>
<path d="M3103 2772 c24 -25 27 -36 27 -98 0 -62 3 -73 25 -94 l25 -23 0 46
c0 40 3 47 20 47 14 0 20 -7 20 -23 0 -30 39 -67 70 -67 l23 0 -21 23 c-19 20
-22 35 -22 98 0 66 -3 78 -23 97 -20 19 -35 22 -97 22 l-74 0 27 -28z m117
-47 c0 -18 -5 -25 -20 -25 -15 0 -20 7 -20 25 0 18 5 25 20 25 15 0 20 -7 20
-25z"/>
<path d="M3289 2776 c13 -14 35 -26 50 -28 25 -3 26 -5 29 -78 2 -53 8 -80 20
-93 16 -18 17 -15 22 74 5 89 6 94 28 97 l24 4 -23 24 c-20 21 -31 24 -97 24
l-75 0 22 -24z"/>
<path d="M3483 2772 c24 -25 27 -36 27 -98 0 -61 3 -74 23 -92 20 -19 35 -22
97 -22 l74 0 -27 28 c-24 25 -27 36 -27 98 0 61 -3 74 -23 92 -20 19 -35 22
-97 22 l-74 0 27 -28z m117 -92 c0 -63 -2 -70 -20 -70 -18 0 -20 7 -20 70 0
63 2 70 20 70 18 0 20 -7 20 -70z"/>
<path d="M3673 2772 c24 -25 27 -36 27 -98 0 -62 3 -73 25 -94 l25 -23 0 43 0
44 43 -42 c30 -30 51 -42 72 -42 l29 0 -44 45 c-31 32 -39 45 -27 45 14 0 17
10 17 53 0 78 -23 97 -120 97 l-74 0 27 -28z m122 -47 c0 -13 -8 -21 -22 -23
-19 -3 -23 1 -23 23 0 22 4 26 23 23 14 -2 22 -10 22 -23z"/>
<path d="M3962 2777 c-43 -45 -13 -127 46 -127 15 0 22 -6 22 -20 0 -18 -7
-20 -72 -20 l-71 0 23 -25 c19 -20 33 -25 75 -25 59 0 95 27 95 71 0 31 -38
69 -68 69 -17 0 -22 6 -22 25 0 23 3 25 48 25 39 0 53 5 72 25 l23 25 -75 0
c-65 0 -77 -3 -96 -23z"/>
<path d="M4247 2772 c-15 -15 -27 -37 -27 -48 0 -27 50 -74 78 -74 15 0 22 -6
22 -20 0 -18 -7 -20 -72 -20 l-71 0 23 -25 c19 -20 33 -25 75 -25 59 0 95 27
95 71 0 33 -39 69 -73 69 -22 0 -27 5 -27 25 0 24 3 25 53 25 40 0 58 5 70 18
10 10 17 22 17 25 0 4 -31 7 -68 7 -62 0 -71 -3 -95 -28z"/>
<path d="M5040 2792 c0 -5 9 -17 20 -27 16 -15 20 -31 20 -90 0 -62 3 -74 23
-93 20 -19 35 -22 97 -22 l73 0 -23 25 c-19 20 -33 25 -72 25 -41 0 -48 3 -48
20 0 17 7 20 45 20 25 0 45 4 45 8 0 17 -37 42 -63 42 -22 0 -27 5 -27 25 0
23 4 25 47 25 l46 0 -23 25 c-21 22 -32 25 -92 25 -37 0 -68 -4 -68 -8z"/>
<path d="M5230 2792 c0 -5 9 -17 20 -27 16 -15 20 -31 20 -90 0 -63 3 -74 25
-95 l25 -23 0 41 c0 23 4 42 8 42 4 0 26 -18 47 -40 25 -26 48 -40 64 -40 24
0 23 2 -19 45 -39 40 -42 45 -22 45 20 0 22 5 22 48 0 40 -5 53 -28 75 -25 24
-36 27 -95 27 -37 0 -67 -4 -67 -8z m140 -67 c0 -20 -5 -25 -25 -25 -20 0 -25
5 -25 25 0 20 5 25 25 25 20 0 25 -5 25 -25z"/>
<path d="M5513 2772 c24 -25 27 -36 27 -98 0 -61 3 -74 23 -92 30 -28 68 -28
95 1 19 20 22 35 22 98 0 66 -3 78 -23 97 -13 12 -34 22 -47 22 l-23 0 21 -23
c18 -19 22 -35 22 -95 0 -65 -2 -72 -20 -72 -18 0 -20 7 -20 67 0 59 -3 70
-27 95 -15 16 -37 28 -52 28 l-25 0 27 -28z"/>
<path d="M5703 2772 c24 -25 27 -36 27 -98 0 -62 3 -73 25 -94 l25 -23 0 46
c0 40 3 47 20 47 14 0 20 -7 20 -23 0 -32 40 -67 75 -67 l29 0 -27 28 c-24 25
-27 36 -27 98 0 61 -3 74 -23 92 -20 19 -35 22 -97 22 l-74 0 27 -28z m117
-47 c0 -18 -5 -25 -20 -25 -15 0 -20 7 -20 25 0 18 5 25 20 25 15 0 20 -7 20
-25z"/>
<path d="M5880 2792 c0 -5 9 -17 20 -27 16 -15 20 -31 20 -90 0 -62 3 -74 23
-93 20 -19 35 -22 97 -22 l73 0 -23 25 c-19 20 -33 25 -72 25 l-48 0 0 70 0
70 47 0 46 0 -23 25 c-21 22 -32 25 -92 25 -37 0 -68 -4 -68 -8z"/>
<path d="M6070 2792 c0 -5 9 -17 20 -27 16 -15 20 -31 20 -90 0 -63 3 -74 25
-95 l25 -23 0 46 c0 43 2 47 25 47 21 0 25 -5 25 -28 0 -36 28 -62 65 -62 l29
0 -27 28 c-24 25 -27 36 -27 98 0 96 -18 114 -113 114 -37 0 -67 -4 -67 -8z
m135 -67 c0 -13 -8 -21 -22 -23 -19 -3 -23 1 -23 23 0 22 4 26 23 23 14 -2 22
-10 22 -23z"/>
<path d="M6260 2792 c0 -17 37 -42 63 -42 27 0 27 -1 27 -73 0 -65 3 -76 25
-97 l25 -23 0 96 c0 93 1 97 22 97 l21 0 -23 25 c-21 22 -32 25 -92 25 -37 0
-68 -4 -68 -8z"/>
<path d="M6450 2792 c0 -17 37 -42 63 -42 27 0 27 -1 27 -70 0 -69 0 -70 -27
-70 l-26 0 23 -25 c21 -22 31 -25 98 -25 l75 0 -23 25 c-13 14 -34 25 -47 25
-22 0 -23 3 -23 70 0 65 1 70 22 70 l21 0 -23 25 c-21 22 -32 25 -92 25 -37 0
-68 -4 -68 -8z"/>
<path d="M6640 2792 c0 -5 9 -17 20 -27 16 -15 20 -31 20 -90 0 -62 3 -74 23
-93 20 -19 35 -22 97 -22 l73 0 -21 23 c-18 19 -22 35 -22 93 0 64 -3 73 -28
97 -25 24 -36 27 -95 27 -37 0 -67 -4 -67 -8z m140 -112 c0 -68 -1 -70 -25
-70 -24 0 -25 2 -25 70 0 68 1 70 25 70 24 0 25 -2 25 -70z"/>
<path d="M6848 2777 c19 -20 22 -35 22 -98 0 -68 3 -78 25 -99 l25 -23 0 66
c0 37 4 67 8 67 17 0 42 -37 42 -62 0 -30 38 -68 70 -68 l23 0 -21 23 c-18 19
-22 35 -22 93 0 62 -3 73 -25 94 l-25 23 0 -43 0 -44 -48 47 c-30 30 -57 47
-72 47 l-23 0 21 -23z"/>
<path d="M7183 2772 c24 -25 27 -36 27 -98 0 -58 4 -74 20 -89 20 -18 20 -17
20 77 0 86 -2 96 -23 116 -13 12 -34 22 -47 22 l-24 0 27 -28z"/>
<path d="M7260 2792 c0 -5 9 -17 20 -27 11 -10 20 -28 20 -40 0 -27 49 -75 78
-75 15 0 22 -6 22 -20 0 -17 -7 -20 -45 -20 -49 0 -55 -8 -27 -33 27 -24 74
-21 100 6 18 19 22 35 22 93 0 64 -3 73 -28 97 -25 24 -36 27 -95 27 -37 0
-67 -4 -67 -8z m140 -67 c0 -20 -5 -25 -25 -25 -20 0 -25 5 -25 25 0 20 5 25
25 25 20 0 25 -5 25 -25z"/>
<path d="M4433 2768 c-19 -20 -23 -35 -23 -94 0 -61 3 -74 23 -92 20 -19 35
-22 97 -22 l73 0 -21 23 c-18 19 -22 35 -22 93 0 62 -3 73 -25 94 l-25 23 0
-91 c0 -91 0 -92 -25 -92 -24 0 -24 2 -27 91 l-3 91 -22 -24z"/>
<path d="M4610 2694 c0 -112 11 -134 65 -134 l29 0 -27 28 c-19 20 -27 39 -27
65 0 41 5 45 32 20 17 -15 19 -15 36 0 27 25 32 21 32 -26 0 -50 30 -87 70
-87 l23 0 -21 23 c-18 19 -22 35 -22 93 0 62 -3 73 -25 94 -24 22 -25 23 -25
3 0 -11 -11 -30 -25 -43 l-25 -24 -45 44 -45 44 0 -100z"/>
<path d="M4840 2697 c0 -85 2 -96 23 -115 13 -12 36 -22 52 -22 l29 0 -27 28
c-19 20 -27 39 -27 65 0 41 5 45 32 20 17 -15 19 -15 36 0 27 25 32 21 32 -26
0 -50 30 -87 70 -87 l24 0 -27 28 c-24 25 -27 36 -27 98 0 58 -4 74 -20 89
-19 18 -20 17 -20 -2 0 -11 -11 -30 -25 -43 l-25 -24 -43 42 c-24 23 -46 42
-50 42 -4 0 -7 -42 -7 -93z"/>
<path d="M7070 2602 c0 -23 39 -42 85 -42 l48 0 -23 25 c-18 19 -34 25 -67 25
-24 0 -43 -4 -43 -8z"/>
</g>
</svg>
